# xmcd
#
# Track frame offsets: 
#        150
#        16928
#        33828
#        48855
#        61629
#        72294
#        90609
#        105911
#        123631
#        131401
#        148673
#        169748
#        189160
#        202971
#
# Disc length: 2861 seconds
#
# Revision: 1
# Processed by: cddbd v1.5.2PL0 Copyright (c) Steve Scherf et al.
# Submitted via: ExactAudioCopyFreeDBPlugin 1.0
#
DISCID=ae0b2b0e
DTITLE=Maria Joao - Joao
DYEAR=2007
DGENRE=Jazz
TTITLE0=Retrato em branco e preto
TTITLE1=Partido alto
TTITLE2=Rosa
TTITLE3=E.C.T.
TTITLE4=Escurinha
TTITLE5=Canto de Ossanha
TTITLE6=Valsa Brasileira
TTITLE7=Dor de Cotovelo
TTITLE8=Tico-Tico no Fuba
TTITLE9=No tabuleiro de Baiana
TTITLE10=O silencio das estrelas
TTITLE11=A outra
TTITLE12=Choro Bandido
TTITLE13=Meu namorado
EXTD=YEAR: 2007
EXTT0=
EXTT1=
EXTT2=
EXTT3=
EXTT4=
EXTT5=
EXTT6=
EXTT7=
EXTT8=
EXTT9=
EXTT10=
EXTT11=
EXTT12=
EXTT13=
PLAYORDER=
